# 3ds Max Wavefront OBJ Exporter v0.97b - (c)2007 guruware
# File Created: 16.12.2014 21:38:10

mtllib dododododhouse2.mtl

#
# object Box001
#

v  -70.2628 0.0000 70.2628
v  -70.2628 0.0000 -70.2628
v  70.2628 0.0000 -70.2628
v  70.2628 0.0000 70.2628
v  -70.2628 69.7095 70.2628
v  70.2628 69.7095 70.2628
v  70.2628 69.7095 -70.2628
v  -70.2628 69.7095 -70.2628
# 8 vertices

vn 0.0000 -1.0000 -0.0000
vn 0.0000 1.0000 -0.0000
vn 0.0000 0.0000 1.0000
vn 1.0000 0.0000 -0.0000
vn 0.0000 0.0000 -1.0000
vn -1.0000 0.0000 -0.0000
# 6 vertex normals

vt 1.0000 0.0000 0.0000
vt 1.0000 1.0000 0.0000
vt 0.0000 1.0000 0.0000
vt 0.0000 0.0000 0.0000
# 4 texture coords

g Box001
usemtl 01___Default
s 2
f 1/1/1 2/2/1 3/3/1 
f 3/3/1 4/4/1 1/1/1 
s 4
f 5/4/2 6/1/2 7/2/2 
f 7/2/2 8/3/2 5/4/2 
usemtl 03___Default
s 8
f 1/4/3 4/1/3 6/2/3 
f 6/2/3 5/3/3 1/4/3 
usemtl 01___Default
s 16
f 4/4/4 3/1/4 7/2/4 
f 7/2/4 6/3/4 4/4/4 
s 32
f 3/4/5 2/1/5 8/2/5 
f 8/2/5 7/3/5 3/4/5 
s 64
f 2/4/6 1/1/6 5/2/6 
f 5/2/6 8/3/6 2/4/6 
# 12 faces

#
# object Box002
#

v  -70.2628 69.6668 70.2628
v  -70.2628 69.6668 -70.2628
v  70.2628 69.6668 -70.2628
v  70.2628 69.6668 70.2628
v  -0.3178 109.5008 -70.2628
v  -0.2159 109.5008 -70.2628
v  -2.7006 109.5008 70.2628
v  -2.6787 109.5008 70.2628
# 8 vertices

vn 0.0000 -1.0000 -0.0000
vn 0.0000 1.0000 -0.0000
vn 0.0000 0.0000 1.0000
vn 0.4834 0.8754 0.0054
vn 0.4915 0.8709 -0.0000
vn 0.4874 0.8732 0.0027
vn 0.4793 0.8776 0.0081
vn 0.0000 0.0000 -1.0000
vn -0.4987 0.8667 -0.0059
vn -0.5079 0.8614 -0.0000
vn -0.5034 0.8640 -0.0029
vn -0.4943 0.8692 -0.0087
# 12 vertex normals

vt 1.0000 0.0000 0.0000
vt 1.0000 1.0000 0.0000
vt 0.0000 1.0000 0.0000
vt 0.0000 0.0000 0.0000
# 4 texture coords

g Box002
usemtl 02___Default
s 2
f 9/5/7 10/6/7 11/7/7 
f 11/7/7 12/8/7 9/5/7 
s 4
f 13/6/7 14/7/7 15/8/8 
f 15/8/8 16/5/8 13/6/7 
s 8
f 15/7/9 9/8/9 12/5/9 
f 12/5/9 16/6/9 15/7/9 
s 16
f 12/8/10 11/5/11 13/6/12 
f 13/6/12 16/7/13 12/8/10 
s 32
f 13/7/9 11/8/14 10/5/14 
f 10/5/14 14/6/9 13/7/9 
s 64
f 10/8/15 9/5/16 15/6/17 
f 15/6/17 14/7/18 10/8/15 
# 12 faces

