# 3ds Max Wavefront OBJ Exporter v0.97b - (c)2007 guruware
# File Created: 16.12.2014 21:29:41

mtllib pyramidhouse2.mtl

#
# object Box001
#

v  -70.2628 0.0000 70.2628
v  -70.2628 0.0000 -70.2628
v  70.2628 0.0000 -70.2628
v  70.2628 0.0000 70.2628
v  -70.2628 69.7095 70.2628
v  70.2628 69.7095 70.2628
v  70.2628 69.7095 -70.2628
v  -70.2628 69.7095 -70.2628
# 8 vertices

vn 0.0000 -1.0000 -0.0000
vn 0.0000 1.0000 -0.0000
vn 0.0000 0.0000 1.0000
vn 1.0000 0.0000 -0.0000
vn 0.0000 0.0000 -1.0000
vn -1.0000 0.0000 -0.0000
# 6 vertex normals

vt 1.0000 0.0000 0.0000
vt 1.0000 1.0000 0.0000
vt 0.0000 1.0000 0.0000
vt 0.0000 0.0000 0.0000
# 4 texture coords

g Box001
usemtl 01___Default
s 2
f 1/1/1 2/2/1 3/3/1 
f 3/3/1 4/4/1 1/1/1 
s 4
f 5/4/2 6/1/2 7/2/2 
f 7/2/2 8/3/2 5/4/2 
usemtl 03___Default
s 8
f 1/4/3 4/1/3 6/2/3 
f 6/2/3 5/3/3 1/4/3 
usemtl 01___Default
s 16
f 4/4/4 3/1/4 7/2/4 
f 7/2/4 6/3/4 4/4/4 
s 32
f 3/4/5 2/1/5 8/2/5 
f 8/2/5 7/3/5 3/4/5 
s 64
f 2/4/6 1/1/6 5/2/6 
f 5/2/6 8/3/6 2/4/6 
# 12 faces

#
# object Pyramid001
#

v  0.0000 110.8366 -0.0000
v  -70.2628 69.8961 69.7095
v  70.2628 69.8961 69.7095
v  70.2628 69.8961 -69.7095
v  -70.2628 69.8961 -69.7095
v  0.0000 69.8961 -0.0000
# 6 vertices

vn 0.0000 0.8623 0.5064
vn 0.5034 0.8640 -0.0000
vn 0.0000 0.8623 -0.5064
vn -0.5034 0.8640 -0.0000
vn 0.0000 -1.0000 -0.0000
# 5 vertex normals

vt 0.5000 1.0000 0.0000
vt 0.0000 0.0000 0.0000
vt 1.0000 0.0000 0.0000
vt -0.0040 0.0000 0.0000
vt 0.9960 0.0000 0.0000
vt 0.0000 1.0000 0.0000
vt 0.5000 0.5000 0.0000
vt 1.0000 1.0000 0.0000
# 8 texture coords

g Pyramid001
usemtl 02___Default
s 4
f 9/5/7 10/6/7 11/7/7 
s 2
f 9/5/8 11/8/8 12/9/8 
s 16
f 9/5/9 12/6/9 13/7/9 
s 32
f 9/5/10 13/8/10 10/9/10 
s 8
f 10/10/11 14/11/11 11/12/11 
f 11/12/11 14/11/11 12/7/11 
f 12/7/11 14/11/11 13/6/11 
f 13/6/11 14/11/11 10/10/11 
# 8 faces

