# 3ds Max Wavefront OBJ Exporter v0.97b - (c)2007 guruware
# File Created: 14.12.2014 18:16:24

mtllib skybox.mtl

#
# object Box001
#

v  -852815.8750 813885.6250 852825.1875
v  852745.7500 813885.6250 852825.1875
v  852745.7500 813885.6250 -852736.4375
v  -852815.8750 813885.6250 -852736.4375
v  -852815.8750 -891675.9375 852825.1875
v  852745.7500 -891675.9375 852825.1875
v  852745.7500 -891675.9375 -852736.4375
v  -852815.8750 -891675.9375 -852736.4375
# 8 vertices

vn 0.0000 1.0000 -0.0000
vn 0.0000 0.0000 1.0000
vn 1.0000 0.0000 -0.0000
vn 0.0000 0.0000 -1.0000
vn -1.0000 0.0000 -0.0000
# 5 vertex normals

vt 0.0000 0.0000 0.0000
vt 1.0000 0.0000 0.0000
vt 1.0000 1.0000 0.0000
vt 0.0000 1.0000 0.0000
# 4 texture coords

g Box001
usemtl 08___Default
s 4
f 1/1/1 2/2/1 3/3/1 
f 3/3/1 4/4/1 1/1/1 
usemtl 01___Default
s 8
f 5/1/2 6/2/2 2/3/2 
f 2/3/2 1/4/2 5/1/2 
usemtl 07___Default
s 16
f 6/1/3 7/2/3 3/3/3 
f 3/3/3 2/4/3 6/1/3 
usemtl 03___Default
s 32
f 7/1/4 8/2/4 4/3/4 
f 4/3/4 3/4/4 7/1/4 
usemtl 02___Default
s 64
f 8/1/5 5/2/5 1/3/5 
f 1/3/5 4/4/5 8/1/5 
# 10 faces

